HIERARCHY
ROOT Hips
{
	OFFSET	0.00	0.00	0.00
	CHANNELS 6 Xposition Yposition Zposition Zrotation Xrotation Yrotation
	JOINT LeftUpLeg
	{
		OFFSET	 0.126116	-0.014019	-0.065224
		CHANNELS 3 Zrotation Xrotation Yrotation
		JOINT LeftLeg
		{
			OFFSET	 0.000000	 0.000000	 0.569914
			CHANNELS 3 Zrotation Xrotation Yrotation
			JOINT LeftFoot
			{
				OFFSET	 0.000000	 0.000000	 0.544423
				CHANNELS 3 Zrotation Xrotation Yrotation
				JOINT LeftToeBase
				{
					OFFSET	 0.000000	 0.000000	 0.207117
					CHANNELS 3 Zrotation Xrotation Yrotation
					End Site
					{
						OFFSET	 0.000000	 0.000000	 0.207117
					}
				}
			}
		}
	}
	JOINT RightUpLeg
	{
		OFFSET	-0.124023	-0.008373	-0.065224
		CHANNELS 3 Zrotation Xrotation Yrotation
		JOINT RightLeg
		{
			OFFSET	 0.000000	 0.000000	 0.570047
			CHANNELS 3 Zrotation Xrotation Yrotation
			JOINT RightFoot
			{
				OFFSET	 0.000000	 0.000000	 0.544354
				CHANNELS 3 Zrotation Xrotation Yrotation
				JOINT RightToeBase
				{
					OFFSET	 0.000000	 0.000000	 0.207540
					CHANNELS 3 Zrotation Xrotation Yrotation
					End Site
					{
						OFFSET	 0.000000	 0.000000	 0.207540
					}
				}
			}
		}
	}
	JOINT Spine
	{
		OFFSET	 0.000184	-0.007763	 0.117403
		CHANNELS 3 Zrotation Xrotation Yrotation
		JOINT Spine1
		{
			OFFSET	 0.000000	 0.000000	 0.137269
			CHANNELS 3 Zrotation Xrotation Yrotation
			JOINT Spine2
			{
				OFFSET	 0.000000	 0.000000	 0.156879
				CHANNELS 3 Zrotation Xrotation Yrotation
				JOINT LeftShoulder
				{
					OFFSET	 0.080501	-0.002496	 0.160144
					CHANNELS 3 Zrotation Xrotation Yrotation
					JOINT LeftArm
					{
						OFFSET	 0.000000	 0.000000	 0.164363
						CHANNELS 3 Zrotation Xrotation Yrotation
						JOINT LeftForeArm
						{
							OFFSET	 0.000000	 0.000000	 0.364576
							CHANNELS 3 Zrotation Xrotation Yrotation
							JOINT LeftHand
							{
								OFFSET	 0.000000	 0.000000	 0.360812
								CHANNELS 3 Zrotation Xrotation Yrotation
								JOINT LeftHandIndex1
								{
									OFFSET	 0.000000	 0.000000	 0.086006
									CHANNELS 3 Zrotation Xrotation Yrotation
									JOINT LeftHandIndex2
									{
										OFFSET	 0.000000	 0.000000	 0.047236
										CHANNELS 3 Zrotation Xrotation Yrotation
										JOINT LeftHandIndex3
										{
											OFFSET	-0.004284	-0.000551	 0.038166
											CHANNELS 3 Zrotation Xrotation Yrotation
											End Site
											{
												OFFSET	-0.004284	-0.000551	 0.038166
											}
										}
									}
								}
							}
						}
					}
				}
				JOINT Neck
				{
					OFFSET	 0.000000	 0.000000	 0.176489
					CHANNELS 3 Zrotation Xrotation Yrotation
					JOINT Head
					{
						OFFSET	 0.000000	-0.001747	 0.077940
						CHANNELS 3 Zrotation Xrotation Yrotation
						End Site
						{
							OFFSET	 0.000000	-0.001747	 0.077940
						}
					}
				}
				JOINT RightShoulder
				{
					OFFSET	-0.080363	 0.000306	 0.159706
					CHANNELS 3 Zrotation Xrotation Yrotation
					JOINT RightArm
					{
						OFFSET	 0.000000	 0.000000	 0.164196
						CHANNELS 3 Zrotation Xrotation Yrotation
						JOINT RightForeArm
						{
							OFFSET	 0.000000	 0.000000	 0.365611
							CHANNELS 3 Zrotation Xrotation Yrotation
							JOINT RightHand
							{
								OFFSET	 0.000000	 0.000000	 0.360648
								CHANNELS 3 Zrotation Xrotation Yrotation
								JOINT RightHandIndex1
								{
									OFFSET	 0.000000	 0.000000	 0.069977
									CHANNELS 3 Zrotation Xrotation Yrotation
									JOINT RightHandIndex2
									{
										OFFSET	 0.000000	 0.000000	 0.052305
										CHANNELS 3 Zrotation Xrotation Yrotation
										JOINT RightHandIndex3
										{
											OFFSET	 0.009002	-0.000782	 0.042196
											CHANNELS 3 Zrotation Xrotation Yrotation
											End Site
											{
												OFFSET	 0.009002	-0.000782	 0.042196
											}
										}
									}
								}
							}
						}
					}
				}
			}
		}
	}
}
MOTION
Frames:    5
Frame Time: 0.03333334
-0.000495	 0.019892	 1.268989	 0.004052	 0.007387	-0.097276	 4.465908	-2.506905	 177.139700	 1.460787	-12.917410	-0.755991	-8.924284	 71.253620	 2.989632	-2.385833	 28.452760	 0.000004	-4.573940	-3.161638	-176.995700	-1.436207	-13.748320	 0.791656	 8.793902	 71.551560	-3.009042	 2.384658	 28.388730	 0.000004	 1.769143	 2.723459	-0.016845	 1.165657	 3.668016	 0.475141	-3.501767	-4.624693	-0.774910	-91.776150	 78.527430	 180.000000	 53.645980	 37.662660	-61.286450	-8.512067	 0.188896	-0.567988	-29.224620	 2.281997	-4.352249	-2.635965	 4.993658	 6.788941	-5.165319	 0.784187	 3.516649	-5.225038	 0.466231	 0.424329	-0.000002	-3.783157	-0.089647	-3.393678	 4.940075	 0.146421	 89.782160	 78.203870	 179.999900	-62.625800	 41.300460	 55.318180	 8.148020	 3.363722	 7.676043	 28.436830	 1.377855	 8.889707	 6.112037	 4.509576	-0.364401	 4.968462	 1.518543	-9.347576	 5.168945	 0.703820	 2.021906
-0.000496	 0.020000	 1.267393	 0.004052	 0.007387	-0.097276	 4.615345	-3.203577	 177.179000	 1.440581	-14.325810	-0.841785	-9.401341	 71.947330	 3.493311	-2.385833	 28.452760	 0.000004	-4.723502	-3.821579	-177.031800	-1.416250	-15.079900	 0.871832	 9.242954	 72.207960	-3.482319	 2.384658	 28.388730	 0.000004	 1.406307	 2.723460	-0.016845	 1.165657	 3.668016	 0.475139	-3.501767	-4.624693	-0.774907	-91.776140	 78.527470	 179.999900	 53.605640	 37.641070	-61.219120	-8.763646	 0.192078	-0.644717	-29.240650	 2.306229	-4.351587	-2.635965	 4.993658	 6.788941	-5.165319	 0.784187	 3.516649	-5.225038	 0.466231	 0.424329	-0.000002	-3.783157	-0.089647	-3.393679	 4.940074	 0.146421	 89.782130	 78.203850	 180.000000	-62.394450	 41.175010	 55.623940	 8.234677	 3.355061	 7.701534	 28.382850	 1.327029	 8.838493	 6.112037	 4.509576	-0.364401	 4.968462	 1.518543	-9.347576	 5.168945	 0.703820	 2.021906
-0.000497	 0.020132	 1.265465	 0.004059	 0.007394	-0.097270	 4.800922	-3.968074	 177.219700	 1.415775	-15.868560	-0.937015	-9.969537	 72.704320	 4.090867	-2.385833	 28.452760	 0.000004	-4.908815	-4.553145	-177.069500	-1.391740	-16.553340	 0.961734	 9.781331	 72.931770	-4.047654	 2.384658	 28.388730	 0.000004	 0.952687	 2.723453	-0.016851	 1.165654	 3.668014	 0.475141	-3.501766	-4.624690	-0.774907	-91.776180	 78.527450	 180.000000	 53.554080	 37.611970	-61.132160	-9.077574	 0.196562	-0.739959	-29.260760	 2.336654	-4.350753	-2.635965	 4.993658	 6.788941	-5.165319	 0.784187	 3.516649	-5.225038	 0.466231	 0.424329	-0.000002	-3.783157	-0.089647	-3.393678	 4.940075	 0.146421	 89.782130	 78.203870	 180.000000	-62.128560	 40.957970	 56.224290	 8.304509	 3.255961	 7.550245	 28.382330	 1.204654	 8.742908	 6.112037	 4.509576	-0.364401	 4.968462	 1.518543	-9.347576	 5.168945	 0.703820	 2.021906
-0.000498	 0.020287	 1.263207	 0.004060	 0.007392	-0.097264	 5.023479	-4.783437	 177.260100	 1.386197	-17.510810	-1.040006	-10.633650	 73.506570	 4.786454	-2.385833	 28.452760	 0.000004	-5.130732	-5.339766	-177.107600	-1.362517	-18.134540	 1.059758	 10.413740	 73.705320	-4.709154	 2.384658	 28.388730	 0.000004	 0.400619	 2.723458	-0.016858	 1.165654	 3.668016	 0.475127	-3.501770	-4.624696	-0.774903	-91.776170	 78.527490	 180.000000	 53.486180	 37.576530	-61.018100	-9.458437	 0.204329	-0.857643	-29.285210	 2.373728	-4.349705	-2.635965	 4.993658	 6.788941	-5.165319	 0.784187	 3.516649	-5.225038	 0.466231	 0.424329	-0.000002	-3.783157	-0.089647	-3.393679	 4.940075	 0.146421	 89.782140	 78.203900	 180.000000	-61.779330	 40.548890	 57.029650	 8.292744	 3.180446	 7.495946	 28.498790	 0.950429	 8.570197	 6.112037	 4.509576	-0.364401	 4.968462	 1.518543	-9.347576	 5.168945	 0.703820	 2.021906
-0.000498	 0.020415	 1.261375	 0.004052	 0.007387	-0.097276	 5.207057	-5.395530	 177.288500	 1.361802	-18.741450	-1.118408	-11.176510	 74.105090	 5.353072	-2.385833	 28.452760	 0.000004	-5.313630	-5.933644	-177.134600	-1.338422	-19.326140	 1.134801	 10.932420	 74.285940	-5.249867	 2.384658	 28.388730	 0.000004	-0.062749	 2.723459	-0.016845	 1.165657	 3.668019	 0.475138	-3.501763	-4.624691	-0.774907	-91.776180	 78.527450	 180.000000	 53.424330	 37.546910	-60.914440	-9.779020	 0.212815	-0.958456	-29.305880	 2.404965	-4.348780	-2.635965	 4.993658	 6.788941	-5.165319	 0.784187	 3.516649	-5.225038	 0.466231	 0.424329	-0.000002	-3.783157	-0.089647	-3.393679	 4.940073	 0.146421	 89.782180	 78.203850	 179.999900	-61.328350	 40.142640	 57.487790	 8.268131	 3.328817	 7.921165	 28.593250	 0.743345	 8.428817	 6.112037	 4.509576	-0.364401	 4.968462	 1.518543	-9.347576	 5.168945	 0.703820	 2.021906
